<svg width="338" height="376" viewBox="0 0 338 376" fill="none" xmlns="http://www.w3.org/2000/svg">
<path fill-rule="evenodd" clip-rule="evenodd" d="M337.525 170.655V264.288C337.525 322.353 337.525 351.386 323.76 364.072C317.195 370.123 308.909 373.924 300.081 374.932C281.571 377.051 259.956 357.932 216.725 319.696C197.617 302.796 188.062 294.344 177.008 292.119C171.564 291.022 165.961 291.022 160.518 292.119C149.464 294.344 139.908 302.796 120.8 319.696C77.5695 357.932 55.9546 377.051 37.4451 374.932C28.6175 373.924 20.3305 370.123 13.7656 364.072C2.23534e-06 351.386 0 322.353 0 264.288V170.655C0 90.2374 -2.23534e-06 50.0286 24.7147 25.0461C49.4295 0.0635986 89.2072 0.0635986 168.763 0.0635986C248.317 0.0635986 288.097 0.0635986 312.811 25.0461C337.525 50.0286 337.525 90.2374 337.525 170.655ZM98.4449 75.0692C98.4449 67.3022 104.741 61.0057 112.508 61.0057H225.017C232.784 61.0057 239.08 67.3022 239.08 75.0692C239.08 82.8363 232.784 89.1328 225.017 89.1328H112.508C104.741 89.1328 98.4449 82.8363 98.4449 75.0692Z" fill="#00DDDD"/>
</svg>
