<svg width="366" height="404" viewBox="0 0 366 404" fill="none" xmlns="http://www.w3.org/2000/svg">
<path d="M126.92 75.0056C119.153 75.0056 112.856 81.3022 112.856 89.0692C112.856 96.8362 119.153 103.133 126.92 103.133H239.428C247.195 103.133 253.492 96.8362 253.492 89.0692C253.492 81.3022 247.195 75.0056 239.428 75.0056H126.92Z" fill="#7A7A8F"/>
<path fill-rule="evenodd" clip-rule="evenodd" d="M182.096 2.88042e-06C143.232 -0.000184634 112.615 -0.000559674 88.6907 3.25093C64.1252 6.58944 44.5275 13.5888 29.128 29.1554C13.749 44.7009 6.85278 64.449 3.55965 89.2081C0.347162 113.362 0.34735 144.285 0.347538 183.597V279.19C0.34735 307.459 0.347162 329.841 2.14786 346.691C3.92737 363.344 7.74441 378.366 18.6459 388.413C27.3919 396.474 38.4525 401.554 50.2572 402.906C65.0234 404.595 78.8107 397.545 92.3922 387.923C106.136 378.188 122.808 363.442 143.843 344.837L144.528 344.231C154.28 335.605 160.882 329.785 166.391 325.757C171.715 321.864 174.966 320.456 177.706 319.905C181.315 319.177 185.032 319.177 188.642 319.905C191.381 320.456 194.633 321.864 199.956 325.757C205.465 329.785 212.068 335.605 221.82 344.231L222.505 344.838C243.54 363.442 260.212 378.19 273.955 387.923C287.537 397.545 301.325 404.595 316.089 402.906C327.895 401.554 338.955 396.474 347.702 388.413C358.603 378.366 362.42 363.344 364.2 346.691C366 329.841 366 307.459 366 279.19V183.595C366 144.285 366 113.362 362.788 89.2081C359.495 64.449 352.598 44.7009 337.22 29.1554C321.82 13.5888 302.223 6.58944 277.656 3.25093C253.732 -0.000559674 223.116 -0.000184634 184.252 2.88042e-06H182.096ZM49.1237 48.9369C58.4388 39.5208 71.0874 34.0289 92.4784 31.1219C114.29 28.1577 142.994 28.1271 183.174 28.1271C223.352 28.1271 252.059 28.1577 273.869 31.1219C295.26 34.0289 307.908 39.5208 317.224 48.9369C326.56 58.3737 332.021 71.2214 334.906 92.9166C337.843 115.001 337.873 144.053 337.873 184.654V278.288C337.873 307.658 337.854 328.528 336.232 343.702C334.571 359.254 331.505 365.09 328.64 367.73C324.256 371.771 318.743 374.291 312.892 374.961C309.149 375.388 302.873 373.941 290.212 364.972C277.863 356.224 262.325 342.508 240.454 323.162L239.964 322.729C230.827 314.647 223.249 307.945 216.559 303.053C209.564 297.937 202.51 294.007 194.196 292.331C186.92 290.866 179.427 290.866 172.152 292.331C163.837 294.007 156.783 297.937 149.789 303.053C143.099 307.945 135.521 314.647 126.384 322.729L125.893 323.162C104.022 342.508 88.484 356.224 76.1342 364.972C63.4734 373.941 57.1984 375.388 53.4549 374.961C47.6046 374.291 42.0914 371.771 37.7073 367.73C34.8432 365.09 31.7775 359.254 30.1158 343.702C28.4942 328.528 28.4746 307.658 28.4746 278.288V184.654C28.4746 144.053 28.5039 115.001 31.4413 92.9166C34.3268 71.2214 39.7879 58.3737 49.1237 48.9369Z" fill="#7A7A8F"/>
</svg>
